PathFileType	4	(X/Y/Z)	C:/Users/beibeiliu/ov580/test_trc/User2\sequence.9_training_dense_left.trc
DataRate	CameraRate	NumFrames	NumMarkers	Units	OrigDataRate	OrigDataStartFrame	OrigNumFrames
120	120	24	19	mm	120	133	353
Frame#	Time	ThumbCMC			ThumbMCP			ThumbIP			ThumbTip			IndexMCP			IndexPIP			IndexTip			MiddleMCP			MiddlePIP			MiddleTip			RingMCP			RingPIP			RingTip			PinkyMCP			PinkyPIP			PinkyTip			BackHand1			BackHand2			BackHand3	
		X0	Y0	Z0	X1	Y1	Z1	X2	Y2	Z2	X3	Y3	Z3	X4	Y4	Z4	X5	Y5	Z5	X6	Y6	Z6	X7	Y7	Z7	X8	Y8	Z8	X9	Y9	Z9	X10	Y10	Z10	X11	Y11	Z11	X12	Y12	Z12	X13	Y13	Z13	X14	Y14	Z14	X15	Y15	Z15	X16	Y16	Z16	X17	Y17	Z17	X18	Y18	Z18	
132	1.1	-196.497	36.6647	81.8829	-205.312	40.4846	50.211	-203.566	35.9807	16.7758	-203.435	40.9868	-3.71095	-171.303	-5.92933	14.4187	-160.647	-16.4375	-8.98151	-150.058	-25.0421	-31.8432	-153.707	-21.1769	11.2539	-140.815	-28.3367	-13.0146	-129.845	-40.48	-40.471	-139.676	-26.0208	23.7167	-126.387	-33.2204	0.595332	-120.182	-36.8171	-24.7932	-126.604	-24.3611	47.3314	-116.152	-29.663	21.8521	-109.865	-37.4185	-0.99416	-158.518	-19.5012	79.2845	-173.696	-12.9537	113.866	-191.972	0.933974	79.0447	
133	1.10833	-209.202	39.0235	82.1425	-218.285	41.9941	55.9091	-218.919	36.2458	21.4424	-224.284	37.7031	-4.67171	-191.741	-7.44732	16.6658	-181.652	-19.2836	-7.12306	-173.855	-31.8134	-32.5624	-172.623	-24.1135	14.3429	-166.296	-30.3052	-13.7249	-155.667	-45.9018	-37.5012	-154.055	-31.4193	28.9374	-149.152	-34.9147	1.337	-142.565	-41.8079	-29.0701	-138.523	-28.6445	46.8485	-132.588	-35.0389	22.3479	-132.131	-39.2582	-1.40689	-171.345	-19.4891	84.9134	-179.595	-11.9221	114.92	-201.207	1.34246	86.64	
134	1.11667	-218.011	42.0138	87.1695	-229.056	39.0796	56.7272	-236.622	34.0538	24.8021	-242.711	35.8242	1.46266	-212.359	-11.0622	21.3879	-210.736	-23.5468	-7.71816	-201.21	-37.6246	-26.2867	-197.539	-26.6695	16.7258	-191.504	-37.105	-7.88413	-188.506	-51.1395	-39.0259	-175.993	-34.9682	28.8602	-174.346	-41.265	0.941367	-168.531	-50.4321	-28.7749	-158.846	-34.4458	43.9041	-158.798	-39.6879	18.018	-159.101	-46.1818	-4.98807	-182.404	-19.508	81.5242	-191.053	-11.2059	112.427	-215.659	2.65819	87.9741	
135	1.125	-229.308	45.579	91.4477	-244.185	45.201	62.9089	-255.087	36.3034	28.7671	-264.746	37.8906	6.25039	-234.788	-13.8685	23.2422	-233.469	-28.9265	0.129285	-230.547	-44.3375	-21.8235	-220.783	-28.7807	21.6177	-220.567	-39.2458	-4.50553	-217.222	-60.8541	-33.7651	-203.161	-35.4425	27.8112	-200.156	-48.7616	2.39334	-202.204	-55.2531	-25.2696	-180.344	-33.1904	47.917	-183.034	-46.9442	19.7451	-186.437	-55.676	-1.41521	-200.518	-18.2646	85.1919	-197.738	-11.2732	114.375	-228.091	6.1272	92.7286	
136	1.13333	-238.171	43.8081	89.8849	-257.626	45.1768	64.0647	-271.851	41.5435	35.9283	-282.098	37.5824	11.4182	-257.523	-13.2653	29.8612	-259.337	-29.3986	9.57662	-260.034	-45.4424	-11.1858	-244.853	-30.1418	27.0158	-248.536	-42.7912	0.23448	-252.914	-60.653	-26.5603	-223.934	-38.5952	35.1697	-227.712	-49.1976	11.8626	-232.081	-62.2785	-18.6969	-204.002	-39.8917	46.5574	-206.528	-52.1142	25.2829	-217.252	-62.5945	1.46843	-216.228	-15.9686	89.4819	-210.81	-9.44678	118.03	-239.75	7.07232	97.0984	
137	1.14167	-247.627	46.4816	92.9994	-267.37	51.4968	69.4211	-283.417	41.5331	38.6574	-295.205	39.973	16.2223	-276.687	-8.21958	40.5521	-286.288	-24.3125	16.0004	-291.296	-41.738	-4.321	-265.099	-26.809	36.6217	-274.436	-42.9805	8.40114	-279.774	-63.3304	-13.444	-244.664	-40.4577	42.4905	-251.022	-53.34	18.746	-263.35	-64.0377	-9.76391	-224.824	-40.4811	51.2627	-232.191	-54.6158	29.1079	-243.309	-64.1486	14.1432	-231.902	-16.8717	93.1971	-221.963	-5.57639	120.859	-254.478	12.2347	101.571	
138	1.15	-251.971	53.0339	95.5099	-272.324	56.0096	71.1026	-296.075	48.7577	40.2332	-306.513	50.0352	20.6242	-293.911	-4.05246	44.8487	-303.56	-21.6663	24.0251	-314.565	-37.8624	3.51731	-284.836	-27.1567	40.8769	-295.973	-39.9658	16.0609	-307.058	-58.1042	-2.67536	-266.319	-36.9157	48.7656	-276.672	-49.3529	25.3242	-285.987	-64.3017	2.99093	-246.882	-39.4229	55.275	-255.743	-55.7615	35.8055	-268.182	-64.0971	22.0579	-247.515	-18.7179	94.9859	-233.346	-1.64142	125.082	-264.884	17.7272	103.643	
139	1.15833	-256.253	58.2479	93.4159	-276.778	61.2013	69.9827	-296.766	53.9939	42.6734	-307.522	54.948	24.2697	-306.281	5.85293	48.1104	-319.813	-10.6319	28.357	-328.332	-27.6317	13.2673	-299.778	-22.3551	45.9366	-311.158	-31.5835	26.2279	-327.717	-47.4685	5.69667	-283.3	-33.6844	51.599	-296.532	-47.3805	30.3863	-311.939	-56.4299	8.76764	-258.98	-37.8396	64.0211	-273.306	-51.8623	44.1247	-289.777	-63.0916	25.0351	-256.32	-10.226	100.838	-245.046	-1.80645	124.621	-266.831	23.3054	107.985	
140	1.16667	-250.424	59.9804	92.5419	-269.037	69.3266	69.5227	-291.399	64.6497	41.4412	-305.352	65.1222	19.6639	-307.834	14.1805	49.6936	-325.78	-0.369604	31.243	-338.559	-15.4382	15.8872	-306.975	-6.92805	50.2297	-323.058	-21.6744	28.8678	-343.434	-35.7469	7.04387	-296.163	-23.416	56.1286	-312.829	-35.2187	33.8067	-328.033	-43.4246	12.6266	-274.391	-34.2661	66.4714	-290.144	-44.8	47.9519	-306.131	-48.7637	30.9638	-264.87	-5.06004	101.786	-247.877	6.36933	129.03	-272.075	33.5003	106.137	
141	1.175	-238.158	63.388	90.7989	-254.652	70.8976	66.5466	-276.09	76.0833	38.3013	-285.399	73.9635	18.4378	-302.453	31.5269	47.1006	-320.835	20.0271	30.1947	-341.737	7.0402	10.2615	-308.637	5.34381	50.3395	-329.791	-2.47427	23.748	-348.086	-13.7152	6.1699	-303.413	-15.3706	55.5135	-317.254	-23.0516	36.4181	-333.386	-30.0253	15.4319	-287.169	-27.9498	68.0131	-300.091	-33.9697	51.4795	-321.095	-36.992	30.9555	-271.768	1.10845	99.5023	-255.48	8.94428	127.789	-264.113	38.1734	104.5	
142	1.18333	-221.067	63.8488	90.8726	-235.693	73.8397	64.4111	-253.782	79.3912	33.909	-263.679	78.9971	12.2346	-291.103	44.2955	44.273	-311.878	34.5969	25.9328	-329.897	26.5014	8.11034	-303.324	22.7854	42.8601	-322.282	14.0367	22.1532	-345.322	5.25262	0.235574	-300.49	3.29324	53.9972	-317.344	-5.23579	33.6384	-335.54	-4.83059	6.36784	-291.104	-16.7433	66.8695	-303.943	-17.1082	47.3596	-322.61	-21.1006	30.6493	-270.085	11.8836	99.998	-256.219	14.3438	128.142	-255.567	44.5639	104.221	
143	1.19167	-207.156	59.6487	90.6833	-215.557	70.3641	63.403	-228.192	80.2101	32.4195	-237.381	81.7865	8.99444	-274.045	55.7224	39.3639	-294.37	53.1707	21.2764	-314.095	49.263	0.740866	-293.694	35.7437	38.7639	-311.524	33.4994	15.0685	-331.808	34.6749	-7.54479	-294.005	18.2314	51.1937	-313.107	15.4106	26.6251	-325.119	17.0056	5.44993	-286.077	-3.50006	65.6773	-300.504	-0.249793	42.3098	-319.553	0.976066	21.7167	-266.512	23.46	96.6953	-251.756	20.6982	127.257	-243.086	48.5536	101.544	
144	1.2	-190.8	54.1631	92.5517	-194.612	70.6134	63.3214	-203.993	79.3333	31.4406	-208.596	85.7711	6.37007	-253.682	66.5799	37.9432	-271.375	70.4791	14.5412	-291.853	71.6827	-7.64538	-274.941	51.6613	36.6951	-289.714	53.4113	12.4998	-309.057	60.485	-14.089	-283.268	36.4195	43.2582	-295.667	37.1395	25.1405	-312.718	41.1611	-3.20765	-276.866	13.6768	60.1775	-293.189	16.9474	35.8312	-305.309	22.4859	20.0798	-256.357	32.579	95.2533	-244.801	29.4267	126.596	-229.204	55.4254	98.2473	
145	1.20833	-176.746	53.3299	92.7063	-174.391	65.5457	66.2592	-179.832	76.7944	32.1991	-179.381	82.6878	9.1537	-233.269	75.929	33.6274	-246.369	82.0181	14.1829	-261.521	87.2824	-7.51961	-254.653	64.0776	34.5526	-267.939	69.5665	8.82835	-283.552	82.7373	-18.5775	-263.499	51.0828	44.3352	-279.077	56.007	19.7481	-289.442	64.2291	-8.37874	-271.833	30.5299	55.3612	-280.725	34.5814	34.0035	-290.922	44.0005	14.0113	-246.348	39.1781	94.6494	-237.663	36.6997	126.113	-212.332	58.8669	101.038	
146	1.21667	-166.897	47.9145	97.0056	-159.18	60.9804	69.5213	-152.66	75.3737	37.9638	-155.005	79.2298	14.4664	-211.8	83.3199	35.2304	-218.486	93.3197	13.6184	-236.461	104.107	-12.3862	-231.077	79.2097	32.8568	-243.34	85.838	5.89913	-254.231	98.3053	-19.5262	-247.64	67.5168	38.9531	-258.386	75.9506	14.3295	-264.939	82.9272	-7.01276	-257.002	45.3181	53.0996	-261.805	55.2035	31.3895	-268.565	68.3145	9.95397	-233.295	50.3673	93.1481	-227.918	46.8356	123.313	-201.191	64.8633	103.133	
147	1.225	-154.525	52.6761	97.606	-140.956	65.4474	72.8674	-140.619	77.3267	41.3151	-131.662	85.5169	17.8983	-188.761	93.6933	36.2462	-198.242	104.218	13.3106	-209.74	115.179	-9.40847	-215.431	90.3335	30.8935	-220.617	100.222	5.92255	-229.204	113.466	-19.4767	-232.05	79.232	39.0669	-235.882	90.6588	13.4988	-244.348	102.607	-11.6551	-244.692	61.6958	51.4315	-245.908	73.3745	26.3994	-251.466	86.7885	7.0845	-223.925	63.0003	89.5414	-214.241	55.7391	124.982	-183.071	70.8367	102.612	
148	1.23333	-141.753	58.6326	102.033	-130.8	72.3514	74.4903	-124.78	84.7382	45.0112	-114.618	91.762	21.6761	-174.678	102.137	39.003	-183.255	114.606	15.6509	-194.318	128.189	-8.67018	-195.357	103.628	32.835	-201.838	115.091	5.13936	-212.76	129.389	-20.2459	-217.967	93.2578	37.2513	-219.6	104.493	14.1835	-221.121	118.772	-12.4092	-229.073	75.2943	50.185	-230.237	88.6214	26.2231	-235.331	103.297	6.66435	-210.852	75.1608	88.8454	-202.221	67.4465	125.442	-173.155	80.4	102.931	
149	1.24167	-135.289	65.0647	101.937	-117.516	77.3263	77.7583	-111.317	94.6788	44.536	-104.996	102.118	22.0658	-163.105	114.981	36.5575	-170.357	125.586	17.9451	-176.907	141.931	-9.50502	-182.07	114.65	35.1833	-189.924	128.113	8.67961	-195.121	146.595	-20.9921	-201.241	107.089	38.0444	-207.288	119.037	13.9146	-210.772	131.084	-7.99765	-217.487	87.3307	51.2281	-221.632	100.126	29.4549	-223.755	116.664	7.98475	-201.456	87.3295	90.3802	-197.319	76.6969	123.52	-160.311	89.7823	104.458	
150	1.25	-128.919	73.5371	99.859	-112.247	85.8739	74.8209	-101.413	98.7788	48.2987	-93.4427	106.604	25.2884	-152.938	122.123	40.1173	-155.955	138.759	15.8432	-167.945	151.478	-5.2831	-176.314	126.353	33.3948	-181.785	140.669	5.57199	-184.674	155.234	-15.6008	-190.416	119.785	36.519	-196.929	130.602	14.0512	-198.775	144.104	-9.17302	-211.373	101.725	50.4779	-211.488	113.946	26.8777	-214.423	132.064	9.84214	-189.994	95.6817	93.1855	-187.475	85.8636	122.042	-152.703	98.1711	105.135	
151	1.25833	-118.804	79.4792	98.6223	-109.392	89.9109	74.9137	-96.1214	106.909	44.2919	-92.3625	112.477	22.4476	-145.39	128.706	40.6961	-150.371	144.09	17.3214	-160.307	159.208	-6.24852	-169.378	132.01	35.4669	-173.836	148.315	8.22209	-177.964	165.694	-17.0524	-186.997	128.019	35.8002	-189.868	139.049	13.7283	-192.343	152.141	-6.57237	-201.489	110.307	48.2031	-206.076	122.291	27.3554	-208.168	137.218	12.2739	-186.806	106.1	90.1104	-183.385	93.4579	121.218	-150.402	104.319	100.776	
152	1.26667	-116.393	80.4845	96.6323	-102.431	88.5159	74.8848	-91.9925	104.997	44.26	-87.0562	111.975	21.7643	-139.605	132.313	35.7039	-143.676	147.22	12.9919	-153.542	160.587	-6.50216	-164.5	136.313	31.9889	-166.685	150.446	6.32189	-174.224	166.527	-17.0632	-181.271	129.203	36.8804	-186.247	140.71	14.3665	-189.301	157.61	-11.8799	-201.66	113.408	47.4061	-198.96	125.809	24.8011	-201.64	141.374	8.06291	-180.712	106.334	90.3793	-175.01	97.6844	120.424	-144.88	105.308	101.707	
153	1.275	-116.436	76.927	94.4809	-98.8697	87.1556	70.5227	-95.3003	100.541	39.5112	-87.2525	105.057	18.0258	-141.236	125.09	34.003	-144.001	142.635	6.93151	-155.506	155.184	-14.1383	-160.281	133.445	25.0262	-167.437	144.085	1.44048	-170.068	160.011	-23.4295	-183.588	124.273	34.4867	-185.466	137.841	8.44186	-185.244	149.091	-13.3844	-195.941	108.685	44.4545	-200.684	122.536	20.0671	-201.583	136.313	4.774	-180.444	105.818	84.1092	-175.119	95.4052	119.451	-142.224	103.466	100.11	
154	1.28333	-116.466	70.9828	91.5775	-98.9845	80.4507	64.5927	-93.8445	92.5213	30.8872	-92.5232	94.8892	10.1892	-140.203	117.72	23.4684	-149.181	127.415	1.52416	-156.869	138.367	-19.7843	-164.909	120.215	21.0861	-167.095	130.326	-5.85572	-173.385	145.175	-33.4553	-179.583	113.47	29.5541	-188.473	124.853	1.7547	-189.48	136.192	-21.4501	-199.533	98.9543	42.5509	-198.019	111.074	16.6511	-202.753	121.136	-0.432092	-176.784	98.9141	82.9034	-173.824	90.5806	116.828	-139.973	97.2914	92.0645	
155	1.29167	-115.001	62.3912	91.2292	-105.535	68.2214	60.2049	-96.0176	74.6905	27.3955	-90.3541	77.8484	2.0343	-139.298	98.1604	17.6402	-146.976	107.505	-9.33751	-157.799	115.594	-32.5272	-164.566	102.629	13.2269	-169.304	108.026	-19.0693	-177.934	116.669	-42.5947	-180.992	98.0695	21.5353	-190.108	104.335	-2.49542	-191.055	112.642	-30.4984	-197.657	85.7497	34.3515	-202.085	90.5357	10.6969	-203.456	100.235	-8.44836	-175.888	91.5127	77.8176	-170.674	88.9488	112.847	-142.223	91.2559	90.149	
